<svg width="93" height="40" viewBox="0 0 93 40" fill="none" xmlns="http://www.w3.org/2000/svg">
<path d="M69.3717 6.2495V20.0942C70.783 15.5314 75.0356 12.2163 80.0621 12.2163C86.241 12.2163 91.2496 17.2259 91.2496 23.4048C91.2495 29.5836 86.241 34.5922 80.0621 34.5923C74.8779 34.5923 70.5173 31.0665 69.2477 26.2817C67.9781 31.0664 63.6173 34.5921 58.4332 34.5923C53.1601 34.5923 48.7382 30.9446 47.5553 26.0347C46.3723 30.9446 41.9514 34.5923 36.6783 34.5923C31.7911 34.5922 27.6356 31.4589 26.1119 27.0913V32.852H21.1393V25.394C21.1393 21.2748 17.8004 17.9352 13.6812 17.935C9.56196 17.935 6.22226 21.2747 6.22226 25.394V32.852H1.2496V25.394C1.2496 18.5286 6.81577 12.9624 13.6812 12.9624C19.3137 12.9625 24.0711 16.7087 25.5982 21.8452C26.357 16.4045 31.0287 12.2164 36.6783 12.2163C41.9515 12.2163 46.3724 15.8649 47.5553 20.7749C48.7381 15.8648 53.16 12.2163 58.4332 12.2163C60.6265 12.2164 62.6723 12.8483 64.399 13.9389V6.2495H69.3717ZM36.6783 17.1889C33.2457 17.1891 30.4635 19.9721 30.4635 23.4048C30.4635 26.8373 33.2458 29.6204 36.6783 29.6206C40.111 29.6206 42.8941 26.8374 42.8941 23.4048C42.8941 19.972 40.1111 17.1889 36.6783 17.1889ZM58.4332 17.1889C55.0005 17.1889 52.2174 19.972 52.2174 23.4048C52.2174 26.8374 55.0005 29.6206 58.4332 29.6206C61.8658 29.6204 64.648 26.8374 64.648 23.4048C64.648 19.9721 61.8658 17.1891 58.4332 17.1889ZM80.0621 17.1889C76.6294 17.1889 73.8463 19.972 73.8463 23.4048C73.8463 26.8375 76.6294 29.6206 80.0621 29.6206C83.4948 29.6206 86.2779 26.8374 86.2779 23.4048C86.2779 19.972 83.4948 17.189 80.0621 17.1889Z" fill="url(#paint0_linear_40000069_500)"/>
<defs>
<linearGradient id="paint0_linear_40000069_500" x1="1.2496" y1="20.4209" x2="91.2496" y2="20.4209" gradientUnits="userSpaceOnUse">
<stop stop-color="#D47150"/>
<stop offset="1" stop-color="#FFB854"/>
</linearGradient>
</defs>
</svg>
